<svg width="20" height="20" viewBox="0 0 20 20" fill="none" xmlns="http://www.w3.org/2000/svg">
<path d="M15.8333 9.16797V8.33464C15.8333 5.19194 15.8333 3.62059 14.857 2.64428C13.8807 1.66797 12.3093 1.66797 9.16667 1.66797C6.02397 1.66797 4.45262 1.66797 3.47631 2.64428C2.5 3.62059 2.5 5.19194 2.5 8.33464V11.668C2.5 14.8106 2.5 16.3821 3.47631 17.3583C4.45262 18.3346 6.02397 18.3346 9.16667 18.3346" stroke="#6B7280" stroke-width="1.5" stroke-linecap="round" stroke-linejoin="round"/>
<path d="M17.5002 18.3346L16.0716 16.9061M16.5477 14.5251C16.5477 16.1031 15.2686 17.3822 13.6907 17.3822C12.1127 17.3822 10.8335 16.1031 10.8335 14.5251C10.8335 12.9471 12.1127 11.668 13.6907 11.668C15.2686 11.668 16.5477 12.9471 16.5477 14.5251Z" stroke="#6B7280" stroke-width="1.5" stroke-linecap="round"/>
<path d="M5.8335 5.83203H12.5002M5.8335 9.16536H9.16683" stroke="#6B7280" stroke-width="1.5" stroke-linecap="round" stroke-linejoin="round"/>
</svg>
