<svg width="20" height="20" viewBox="0 0 20 20" fill="none" xmlns="http://www.w3.org/2000/svg">
<path d="M17.9168 9.9987C17.9168 14.3709 14.3724 17.9154 10.0002 17.9154C8.64341 17.9154 7.36633 17.574 6.25016 16.9726C4.6933 16.1337 3.64568 16.9136 2.72176 17.0535C2.58161 17.0748 2.44203 17.0239 2.3418 16.9237C2.18967 16.7715 2.16071 16.5363 2.24475 16.3382C2.60737 15.4835 2.94033 13.8639 2.48634 12.4987C2.225 11.7129 2.0835 10.8723 2.0835 9.9987C2.0835 5.62644 5.6279 2.08203 10.0002 2.08203C14.3724 2.08203 17.9168 5.62644 17.9168 9.9987Z" stroke="#6B7280" stroke-width="1.5" stroke-linecap="round" stroke-linejoin="round"/>
<path d="M7.9165 7.91536C7.9165 6.76477 8.84925 5.83203 9.99984 5.83203C11.1504 5.83203 12.0832 6.76477 12.0832 7.91536C12.0832 8.62945 11.7239 9.25961 11.1763 9.63503C10.6068 10.0253 9.99984 10.5584 9.99984 11.2487" stroke="#6B7280" stroke-width="1.5" stroke-linecap="round" stroke-linejoin="round"/>
<path d="M10 13.75H10.0075" stroke="#6B7280" stroke-width="1.8" stroke-linecap="round" stroke-linejoin="round"/>
</svg>
