<svg width="20" height="20" viewBox="0 0 20 20" fill="none" xmlns="http://www.w3.org/2000/svg">
<path d="M2.5 9.99003V12.082C2.5 14.8319 2.5 16.2068 3.35427 17.0611C4.20854 17.9154 5.58347 17.9154 8.33333 17.9154H11.6667C14.4165 17.9154 15.7914 17.9154 16.6457 17.0611C17.5 16.2068 17.5 14.8319 17.5 12.082V9.99003C17.5 8.58895 17.5 7.88847 17.2034 7.28207C16.9068 6.67567 16.3539 6.2456 15.248 5.38546L13.5813 4.08916C11.8609 2.75107 11.0007 2.08203 10 2.08203C8.99925 2.08203 8.13908 2.75107 6.41868 4.08916L4.75201 5.38546C3.64611 6.2456 3.09316 6.67567 2.79658 7.28207C2.5 7.88847 2.5 8.58895 2.5 9.99003Z" stroke="#213243" stroke-width="1.5" stroke-linecap="round" stroke-linejoin="round"/>
<path d="M14.1665 14.5833V11.25" stroke="#213243" stroke-width="1.5" stroke-linecap="round" stroke-linejoin="round"/>
</svg>
