<svg width="20" height="20" viewBox="0 0 20 20" fill="none" xmlns="http://www.w3.org/2000/svg">
<path d="M11.6665 18.3346V6.66797C11.6665 4.31094 11.6665 3.13244 10.9343 2.4002C10.202 1.66797 9.0235 1.66797 6.6665 1.66797C4.30948 1.66797 3.13097 1.66797 2.39874 2.4002C1.6665 3.13244 1.6665 4.31094 1.6665 6.66797V13.3346C1.6665 15.6916 1.6665 16.8701 2.39874 17.6024C3.13097 18.3346 4.30948 18.3346 6.6665 18.3346H11.6665Z" stroke="#6B7280" stroke-width="1.5" stroke-linecap="round"/>
<path d="M5.41683 9.16536H4.5835M8.75016 9.16536H7.91683M5.41683 5.83203H4.5835M5.41683 12.4987H4.5835M8.75016 5.83203H7.91683M8.75016 12.4987H7.91683" stroke="#6B7280" stroke-width="1.5" stroke-linecap="round"/>
<path d="M15.4168 12.5013H14.5835M15.4168 9.16797H14.5835" stroke="#6B7280" stroke-width="1.5" stroke-linecap="round"/>
<path d="M14.9998 6.66797H11.6665V18.3346H14.9998C16.5712 18.3346 17.3568 18.3346 17.845 17.8465C18.3332 17.3583 18.3332 16.5726 18.3332 15.0013V10.0013C18.3332 8.42997 18.3332 7.64428 17.845 7.15613C17.3568 6.66797 16.5712 6.66797 14.9998 6.66797Z" stroke="#6B7280" stroke-width="1.5" stroke-linecap="round"/>
</svg>
