<svg width="20" height="20" viewBox="0 0 20 20" fill="none" xmlns="http://www.w3.org/2000/svg">
<path d="M6.6665 14.168H13.3332" stroke="#6B7280" stroke-width="1.5" stroke-linecap="round" stroke-linejoin="round"/>
<path d="M6.6665 10.832H9.99984" stroke="#6B7280" stroke-width="1.5" stroke-linecap="round" stroke-linejoin="round"/>
<path d="M10.8335 2.08464V2.5013C10.8335 4.85833 10.8335 6.03684 11.5657 6.76907C12.298 7.5013 13.4765 7.5013 15.8335 7.5013H16.2502M16.6668 8.88205V11.668C16.6668 14.8106 16.6668 16.3821 15.6905 17.3583C14.7142 18.3346 13.1428 18.3346 10.0002 18.3346C6.85746 18.3346 5.28612 18.3346 4.3098 17.3583C3.3335 16.3821 3.3335 14.8106 3.3335 11.668V7.88117C3.3335 5.17699 3.3335 3.82489 4.07189 2.90908C4.22106 2.72406 4.38959 2.55554 4.5746 2.40636C5.49042 1.66797 6.84251 1.66797 9.54666 1.66797C10.1347 1.66797 10.4286 1.66797 10.6978 1.76298C10.7538 1.78274 10.8087 1.80547 10.8622 1.83109C11.1198 1.95426 11.3277 2.16214 11.7434 2.57787L15.6905 6.52499C16.1722 7.00671 16.4131 7.24757 16.54 7.55385C16.6668 7.86014 16.6668 8.20076 16.6668 8.88205Z" stroke="#6B7280" stroke-width="1.5" stroke-linecap="round" stroke-linejoin="round"/>
</svg>
