<svg width="20" height="20" viewBox="0 0 20 20" fill="none" xmlns="http://www.w3.org/2000/svg">
<path d="M10.8332 1.66797H9.1665C5.63097 1.66797 3.8632 1.66797 2.76485 2.76632C1.6665 3.86467 1.6665 5.63244 1.6665 9.16797C1.6665 12.7035 1.6665 14.4713 2.76485 15.5696C3.8632 16.668 5.63097 16.668 9.1665 16.668H10.8332C14.3687 16.668 16.1365 16.668 17.2348 15.5696C18.3332 14.4713 18.3332 12.7035 18.3332 9.16797C18.3332 5.63244 18.3332 3.86467 17.2348 2.76632C16.1365 1.66797 14.3687 1.66797 10.8332 1.66797Z" stroke="#6B7280" stroke-width="1.5"/>
<path d="M14.1665 12.4987C14.9998 12.0564 14.9998 11.3444 14.9998 9.92053V8.4102C14.9998 6.98633 14.9998 6.27438 14.1665 5.83203" stroke="#6B7280" stroke-width="1.5" stroke-linecap="round"/>
<path d="M15 18.3346V16.668" stroke="#6B7280" stroke-width="1.5" stroke-linecap="round"/>
<path d="M5 18.3346V16.668" stroke="#6B7280" stroke-width="1.5" stroke-linecap="round"/>
<path d="M7.91661 10.832C8.84658 10.832 9.6005 10.0859 9.6005 9.16536C9.6005 8.24489 8.84658 7.4987 7.91661 7.4987M7.91661 10.832C6.98662 10.832 6.2327 10.0859 6.2327 9.16536C6.2327 8.24489 6.98662 7.4987 7.91661 7.4987M7.91661 10.832V12.4987M7.91661 7.4987V5.83203M6.45831 9.9987L5 10.832M10.8333 7.4987L9.37492 8.33203M9.375 9.9987L10.8333 10.832M5.00008 7.4987L6.45839 8.33203" stroke="#6B7280" stroke-width="1.5" stroke-linecap="round" stroke-linejoin="round"/>
</svg>
