<svg width="20" height="20" viewBox="0 0 20 20" fill="none" xmlns="http://www.w3.org/2000/svg">
<path d="M13.5901 3.65459C13.0976 3.65459 12.8513 3.65459 12.6269 3.57134C12.5958 3.55978 12.5651 3.54706 12.5348 3.5332C12.3173 3.43343 12.1433 3.25929 11.7949 2.91103C10.9933 2.10944 10.5926 1.70865 10.0994 1.67169C10.0332 1.66673 9.9665 1.66673 9.90025 1.67169C9.40709 1.70865 9.00625 2.10944 8.20471 2.91102C7.85645 3.25929 7.68231 3.43343 7.46481 3.5332C7.4346 3.54706 7.40389 3.55978 7.37273 3.57134C7.14838 3.65459 6.90211 3.65459 6.4096 3.65459H6.31875C5.06215 3.65459 4.43386 3.65459 4.0435 4.04496C3.65312 4.43533 3.65312 5.06362 3.65312 6.32021V6.41106C3.65312 6.90358 3.65312 7.14984 3.56988 7.37419C3.55831 7.40535 3.5456 7.43607 3.53174 7.46628C3.43196 7.68378 3.25783 7.85791 2.90955 8.20618C2.10798 9.00772 1.70719 9.40855 1.67023 9.90172C1.66526 9.96797 1.66526 10.0346 1.67023 10.1009C1.70719 10.5941 2.10798 10.9948 2.90955 11.7964C3.25783 12.1447 3.43196 12.3188 3.53174 12.5363C3.5456 12.5666 3.55831 12.5972 3.56988 12.6284C3.65312 12.8527 3.65312 13.0991 3.65312 13.5916V13.6824C3.65312 14.939 3.65312 15.5673 4.0435 15.9576C4.43386 16.3481 5.06215 16.3481 6.31875 16.3481H6.4096C6.90211 16.3481 7.14838 16.3481 7.37273 16.4313C7.40389 16.4428 7.4346 16.4556 7.46481 16.4694C7.68231 16.5692 7.85645 16.7433 8.20471 17.0916C9.00625 17.8931 9.40709 18.294 9.90025 18.3309C9.9665 18.3359 10.0331 18.3359 10.0994 18.3309C10.5926 18.294 10.9933 17.8931 11.7949 17.0916C12.1433 16.7433 12.3173 16.5692 12.5348 16.4694C12.5651 16.4556 12.5958 16.4428 12.6269 16.4313C12.8513 16.3481 13.0976 16.3481 13.5901 16.3481H13.6809C14.9375 16.3481 15.5658 16.3481 15.9562 15.9576C16.3466 15.5673 16.3466 14.939 16.3466 13.6824V13.5916C16.3466 13.0991 16.3466 12.8527 16.4298 12.6284C16.4413 12.5972 16.4541 12.5666 16.4679 12.5363C16.5678 12.3188 16.7418 12.1447 17.0901 11.7964C17.8917 10.9948 18.2925 10.5941 18.3294 10.1009C18.3344 10.0346 18.3344 9.96797 18.3294 9.90172C18.2925 9.40855 17.8917 9.00772 17.0901 8.20618C16.7418 7.85791 16.5678 7.68378 16.4679 7.46628C16.4541 7.43607 16.4413 7.40535 16.4298 7.37419C16.3466 7.14984 16.3466 6.90358 16.3466 6.41106V6.32021C16.3466 5.06362 16.3466 4.43533 15.9562 4.04496C15.5658 3.65459 14.9375 3.65459 13.6809 3.65459H13.5901Z" stroke="#6B7280" stroke-width="1.5"/>
<path d="M12.9168 9.9987C12.9168 11.6095 11.611 12.9154 10.0002 12.9154C8.38933 12.9154 7.0835 11.6095 7.0835 9.9987C7.0835 8.38786 8.38933 7.08203 10.0002 7.08203C11.611 7.08203 12.9168 8.38786 12.9168 9.9987Z" stroke="#6B7280" stroke-width="1.5"/>
</svg>
