<svg width="20" height="20" viewBox="0 0 20 20" fill="none" xmlns="http://www.w3.org/2000/svg">
<path d="M10.8332 9.16536C10.8332 7.32441 9.34075 5.83203 7.49984 5.83203C5.65889 5.83203 4.1665 7.32441 4.1665 9.16536C4.1665 11.0063 5.65889 12.4987 7.49984 12.4987C9.34075 12.4987 10.8332 11.0063 10.8332 9.16536Z" stroke="#6B7280" stroke-width="1.5" stroke-linecap="round" stroke-linejoin="round"/>
<path d="M9.19867 6.29811C9.17742 6.14623 9.1665 5.99106 9.1665 5.83333C9.1665 3.99238 10.6589 2.5 12.4998 2.5C14.3408 2.5 15.8332 3.99238 15.8332 5.83333C15.8332 7.67428 14.3408 9.16667 12.4998 9.16667C11.8793 9.16667 11.2985 8.99717 10.801 8.70192" stroke="#6B7280" stroke-width="1.5" stroke-linecap="round" stroke-linejoin="round"/>
<path d="M12.5 17.5C12.5 14.7386 10.2614 12.5 7.5 12.5C4.73857 12.5 2.5 14.7386 2.5 17.5" stroke="#6B7280" stroke-width="1.5" stroke-linecap="round" stroke-linejoin="round"/>
<path d="M17.5 14.168C17.5 11.4066 15.2614 9.16797 12.5 9.16797" stroke="#6B7280" stroke-width="1.5" stroke-linecap="round" stroke-linejoin="round"/>
</svg>
