<svg width="20" height="20" viewBox="0 0 20 20" fill="none" xmlns="http://www.w3.org/2000/svg">
<path d="M2.9165 8.33203V12.4987C2.9165 14.8557 2.9165 16.0342 3.64873 16.7664C4.38096 17.4987 5.55948 17.4987 7.9165 17.4987H12.0832C14.4402 17.4987 15.6187 17.4987 16.3509 16.7664C17.0832 16.0342 17.0832 14.8557 17.0832 12.4987V8.33203" stroke="#6B7280" stroke-width="1.5" stroke-linecap="round" stroke-linejoin="round"/>
<path d="M14.1665 6.25122C14.1665 7.40182 13.2337 8.333 12.0832 8.333C10.9326 8.333 9.99982 7.40026 9.99982 6.24967C9.99982 7.40026 9.06707 8.333 7.91651 8.333C6.76591 8.333 5.83317 7.40026 5.83317 6.24967C5.83317 7.40026 4.85528 8.333 3.649 8.333C2.99969 8.333 2.41656 8.06275 2.01649 7.63375C1.32867 6.89619 1.77117 5.81138 2.34522 4.99004L2.66817 4.54845C3.40304 3.54361 3.77047 3.04119 4.30393 2.77047C4.83739 2.49976 5.45983 2.49984 6.70472 2.50001L13.2957 2.50088C14.5402 2.50105 15.1625 2.50113 15.6957 2.77184C16.229 3.04255 16.5963 3.54481 17.331 4.54933L17.6544 4.9916C18.2285 5.81293 18.671 6.89774 17.9832 7.6353C17.5831 8.06431 17 8.33452 16.3507 8.33452C15.1443 8.33452 14.1665 7.40182 14.1665 6.25122Z" stroke="#6B7280" stroke-width="1.5" stroke-linecap="round" stroke-linejoin="round"/>
<path d="M12.4976 14.168C11.9278 14.674 11.0206 15.0013 9.99875 15.0013C8.97692 15.0013 8.0698 14.674 7.5 14.168" stroke="#6B7280" stroke-width="1.5" stroke-linecap="round" stroke-linejoin="round"/>
</svg>
