<svg width="135" height="40" viewBox="0 0 135 40" fill="none" xmlns="http://www.w3.org/2000/svg">
<path d="M8.18341 5.58157V16.4711L17.8409 6.4377H19.0395L13.9027 11.8146L22.4975 25.0678H12.6018L8.18341 17.774V25.0678H0V0H2.60184C6.91595 0 8.18341 2.53493 8.18341 5.58157Z" fill="#0C1318"/>
<path d="M29.0806 12.6683C30.3776 10.901 31.9796 9.79688 34.3 9.79688C38.8011 9.79688 40.4032 12.7235 40.4032 15.0714V25.0694H33.5541V15.0714C33.5541 12.8061 33.251 11.0112 31.9521 11.149C31.1235 11.2592 30.1296 12.1429 29.2184 13.3021C29.301 13.6878 29.3286 14.1031 29.3286 14.544V25.0655H22.7275V10.0429H24.8255C27.3664 10.0429 28.5807 11.1194 29.0786 12.6664L29.0806 12.6683Z" fill="#0C1318"/>
<path d="M50.0114 9.71291C55.7012 9.71291 58.7931 13.4681 58.0472 19.4885H48.2992C48.4645 21.0079 48.9624 22.6926 50.3972 23.3263C51.4186 23.7692 55.3135 24.5131 57.1911 20.5651L57.689 20.7028C56.5023 23.7121 53.7666 25.3968 50.0114 25.3968C45.0951 25.3968 41.395 22.358 41.395 17.4712C41.395 12.5844 45.0951 9.71094 50.0114 9.71094V9.71291ZM48.2696 18.9099H51.639C51.6115 13.2476 51.3911 10.2935 50.037 10.2935C48.6829 10.2935 48.2972 12.3364 48.2421 17.4732C48.2421 17.8589 48.2421 18.3569 48.2696 18.9099Z" fill="#0C1318"/>
<path d="M67.1305 9.71291C72.8204 9.71291 75.9123 13.4681 75.1663 19.4885H65.4183C65.5836 21.0079 66.0815 22.6926 67.5183 23.3263C68.5397 23.7692 72.4346 24.5131 74.3122 20.5651L74.8101 20.7028C73.6233 23.7121 70.8896 25.3968 67.1325 25.3968C62.2162 25.3968 58.5161 22.358 58.5161 17.4712C58.5161 12.5844 62.2162 9.71094 67.1325 9.71094L67.1305 9.71291ZM65.3907 18.9099H68.7601C68.7326 13.2476 68.5122 10.2935 67.1581 10.2935C65.804 10.2935 65.4183 12.3364 65.3632 17.4732C65.3632 17.8589 65.3632 18.3569 65.3907 18.9099Z" fill="#0C1318"/>
<path d="M83.3238 10.9804C81.2534 9.73849 78.9881 11.1457 79.3187 12.1671C79.6494 13.1335 81.2239 13.3539 83.9025 14.2651C88.128 15.7294 89.5352 17.5243 89.425 20.3683C89.3423 23.2948 86.4708 25.3948 82.7964 25.3948C79.5647 25.3948 75.4789 23.7652 75.5065 21.5019C75.5065 20.3702 76.5004 19.6794 77.4943 19.7896C80.6433 20.1203 80.0627 24.0978 82.3555 24.6233C84.9239 25.259 86.5259 23.8223 86.1382 22.6355C85.78 21.559 83.7352 21.309 81.0841 20.2876C76.4728 18.5478 75.5065 16.4222 75.6443 14.1845C75.8096 11.3681 79.0963 9.71094 82.7964 9.71094C85.4474 9.71094 88.6791 10.7048 88.9822 12.4722C89.2577 14.2396 87.5179 14.6253 86.5791 14.2671C85.0597 13.6865 84.9219 11.9467 83.3199 10.9804H83.3238Z" fill="#0C1318"/>
<path d="M91.2651 16.8098V4.85156H94.1366C97.6162 4.85156 98.6377 6.89446 98.6377 9.35263V17.0302C98.6377 17.8313 98.4448 24.5976 101.371 24.5976C104.741 24.5976 108.138 22.2221 108.138 17.1129V4.85156H108.718V17.0578C108.718 22.1119 105.957 25.3987 100.019 25.3987C94.0815 25.3987 91.2651 21.4487 91.2651 16.8098Z" fill="#0C1318"/>
<path d="M116.719 12.197C117.244 11.0929 118.016 10.4021 119.094 10.0439C123.54 8.55209 127.931 12.5296 127.931 17.5838C127.931 22.3623 123.706 26.4206 119.094 25.1236C118.266 24.9032 117.63 24.5154 117.162 23.9644V32.4706H110.561V10.0459H112.631C114.924 10.0459 116.138 10.902 116.719 12.199V12.197ZM121.055 17.5818C121.055 12.0868 120.171 10.9256 119.122 11.0083C118.155 11.1185 117.382 12.0573 117.382 17.5818C117.354 23.3267 118.128 24.1553 119.122 24.2655C120.198 24.4033 121.055 23.3267 121.055 17.5818Z" fill="#0C1318"/>
<path d="M37.6241 31.4062H39.7299L41.8004 36.8973H41.824L43.9299 31.4062H45.9059L42.4499 39.7865H40.9698L37.6201 31.4062H37.6241Z" fill="#0C1318"/>
<path d="M48.1812 31.4062H53.8749V33.1106H50.0292V34.6733H53.6623V36.3777H50.0292V38.0821H54.0894V39.7865H48.1831V31.4062H48.1812Z" fill="#0C1318"/>
<path d="M56.9746 31.4062H59.484L63.0462 37.2299H63.0699V31.4062H64.9159V39.7865H62.5011L58.8443 33.8211H58.8207V39.7865H56.9746V31.4062Z" fill="#0C1318"/>
<path d="M75.0831 36.5548C75.0831 37.0528 75.0083 37.5094 74.8587 37.9286C74.7092 38.3478 74.4868 38.7099 74.1896 39.0169C73.8944 39.324 73.5244 39.566 73.0835 39.7392C72.6426 39.9124 72.1329 39.999 71.5562 39.999C70.9796 39.999 70.46 39.9124 70.0172 39.7392C69.5744 39.566 69.2063 39.3259 68.9111 39.0169C68.6159 38.7099 68.3915 38.3458 68.2419 37.9286C68.0924 37.5113 68.0176 37.0528 68.0176 36.5548V31.4062H69.8637V36.484C69.8637 36.7438 69.905 36.9858 69.9877 37.2063C70.0703 37.4267 70.1864 37.6196 70.336 37.781C70.4856 37.9423 70.6647 38.0683 70.8753 38.1588C71.0839 38.2494 71.3102 38.2946 71.5562 38.2946C71.8023 38.2946 72.0247 38.2494 72.2313 38.1588C72.436 38.0683 72.6131 37.9423 72.7647 37.781C72.9142 37.6196 73.0304 37.4287 73.113 37.2063C73.1957 36.9858 73.237 36.7438 73.237 36.484V31.4062H75.0831V36.5548Z" fill="#0C1318"/>
<path d="M78.2183 31.4062H83.91V33.1106H80.0644V34.6733H83.6975V36.3777H80.0644V38.0821H84.1246V39.7865H78.2183V31.4062Z" fill="#0C1318"/>
<path d="M91.131 33.4547C90.9815 33.2658 90.7787 33.126 90.5209 33.0355C90.2651 32.945 90.021 32.8997 89.7927 32.8997C89.6589 32.8997 89.5211 32.9154 89.3794 32.9469C89.2377 32.9784 89.1039 33.0276 88.9779 33.0945C88.852 33.1615 88.7496 33.25 88.6709 33.3602C88.5922 33.4705 88.5528 33.6043 88.5528 33.7617C88.5528 34.0137 88.6473 34.2085 88.8362 34.3423C89.0252 34.4762 89.2633 34.5903 89.5526 34.6848C89.8419 34.7792 90.1509 34.8737 90.4816 34.9682C90.8122 35.0626 91.1232 35.1965 91.4105 35.3697C91.6978 35.5429 91.938 35.7771 92.1269 36.0684C92.3158 36.3596 92.4103 36.7513 92.4103 37.2394C92.4103 37.7275 92.3237 38.1113 92.1505 38.4576C91.9773 38.804 91.7431 39.0933 91.4459 39.3216C91.1507 39.55 90.8063 39.7192 90.4166 39.8314C90.0269 39.9416 89.6136 39.9967 89.1806 39.9967C88.6355 39.9967 88.1316 39.914 87.6652 39.7487C87.1988 39.5834 86.7658 39.3157 86.3623 38.9438L87.675 37.4992C87.864 37.7511 88.1021 37.9479 88.3914 38.0857C88.6788 38.2234 88.9779 38.2923 89.2849 38.2923C89.4345 38.2923 89.5861 38.2746 89.7416 38.2392C89.8951 38.2038 90.0328 38.1506 90.1548 38.0798C90.2769 38.0089 90.3753 37.9184 90.4501 37.8082C90.5249 37.698 90.5622 37.5681 90.5622 37.4185C90.5622 37.1666 90.4658 36.9678 90.2729 36.8202C90.0801 36.6745 89.836 36.5505 89.5447 36.4482C89.2535 36.3459 88.9366 36.2435 88.5981 36.1412C88.2596 36.0388 87.9427 35.9011 87.6514 35.7279C87.3601 35.5547 87.1161 35.3264 86.9232 35.041C86.7303 34.7576 86.6339 34.3817 86.6339 33.9172C86.6339 33.4527 86.7225 33.0729 86.8996 32.7344C87.0767 32.3959 87.3129 32.1105 87.6101 31.8822C87.9053 31.6539 88.2478 31.4827 88.6335 31.3665C89.0193 31.2524 89.4188 31.1953 89.8281 31.1953C90.3025 31.1953 90.7591 31.2622 91.2019 31.3961C91.6427 31.5299 92.0423 31.7543 92.3965 32.0711L91.131 33.4567V33.4547Z" fill="#0C1318"/>
<path d="M128.72 10.6674H127.854V9.96875H130.374V10.6674H129.508V12.9682H128.72V10.6674ZM131.013 9.96875H132.068L132.783 11.9211L133.497 9.96875H134.554V12.9682H133.767V11.0158H133.753L133.038 12.9682H132.529L131.814 11.0158H131.801V12.9682H131.013V9.96875Z" fill="#0C1318"/>
</svg>
